<?xml version="1.0" encoding="utf-8"?>
<!-- Generator: Adobe Illustrator 18.1.1, SVG Export Plug-In . SVG Version: 6.00 Build 0)  -->
<svg version="1.1" id="Layer_1" xmlns="http://www.w3.org/2000/svg" xmlns:xlink="http://www.w3.org/1999/xlink" x="0px" y="0px"
	 viewBox="0 0 100 100" enable-background="new 0 0 100 100" xml:space="preserve">
<g>
	<path fill="#F7941E" d="M59.5,48.4l6.4,29.4l6.3-29.4l6.4,29.4l5.6-29.4h1.9l-8.2,40.7h-1.4l-5.6-26.3l-5.7,26.3H64l-8.8-40.7H59.5
		z"/>
</g>
<g>
	<path fill="#F7941E" d="M37.8,30.1l2.8-2.2h1.2V56c0.3-1.1,0.8-2.2,1.3-3.2c0.5-1,1.1-1.9,1.7-2.7c0.6-0.8,1.3-1.4,1.9-1.8
		c0.7-0.4,1.3-0.7,1.9-0.7c1.2,0,2.3,0.5,3.2,1.4c1,0.9,1.8,2.2,2.5,3.9s1.3,3.5,1.7,5.7c0.4,2.2,0.6,4.5,0.6,7
		c0,2.2-0.1,4.4-0.4,6.4c-0.3,2-0.6,3.9-1.1,5.7c-0.5,1.8-1.1,3.4-1.8,4.9s-1.4,2.7-2.3,3.7c-0.8,1-1.7,1.8-2.7,2.4
		c-1,0.6-2,0.9-3,0.9c-1.5,0-2.9-0.4-4.2-1.2c-1.3-0.8-2.5-2-3.5-3.6V30.1z M41.8,82.1c0.2,0.5,0.5,1,0.8,1.5c0.3,0.5,0.6,0.9,1,1.3
		s0.8,0.7,1.2,1c0.4,0.2,1,0.4,1.5,0.4c0.9,0,1.8-0.4,2.5-1.3s1.4-2.2,2-3.8c0.5-1.6,1-3.5,1.3-5.7c0.3-2.2,0.4-4.6,0.4-7.2
		c0-2-0.2-3.9-0.5-5.6c-0.3-1.7-0.7-3.3-1.3-4.6S49.7,55.7,49,55c-0.7-0.7-1.5-1.1-2.3-1.1c-0.4,0-0.9,0.1-1.4,0.4
		c-0.5,0.2-0.9,0.6-1.4,1c-0.4,0.4-0.8,1-1.2,1.6c-0.4,0.6-0.7,1.2-0.9,1.9V82.1z"/>
</g>
<g>
	<path fill="#666766" d="M92.5,75.1c0,0-0.6,1-1.9,2.8c-0.3,0.5-0.6,1-1,1.5c-0.4,0.5-0.9,1.1-1.4,1.7c-0.5,0.6-1,1.3-1.7,2
		c-0.6,0.7-1.3,1.4-2.1,2.1c-3,2.9-6.9,6.2-12,8.8c-0.6,0.4-1.3,0.6-2,1c-0.7,0.3-1.4,0.6-2.1,0.9c-0.7,0.3-1.4,0.6-2.2,0.8
		c-0.8,0.3-1.5,0.5-2.3,0.8c-0.8,0.3-1.6,0.4-2.4,0.6c-0.8,0.2-1.6,0.4-2.5,0.6c-1.7,0.3-3.4,0.5-5.2,0.8
		c-7.2,0.6-15.1-0.4-22.8-3.6c-1-0.4-1.9-0.9-2.8-1.3L26.7,94L26,93.6c0,0-0.1-0.1-0.1-0.1l-0.1-0.1l-0.2-0.1l-0.3-0.2
		c-1.8-1.1-3.6-2.1-5.3-3.6c-3.6-2.6-6.6-5.9-9.4-9.5c-0.7-0.9-1.3-1.9-2-2.8c-0.6-1-1.2-2-1.7-3l-0.9-1.5c-0.2-0.5-0.5-1.1-0.7-1.6
		c-0.5-1.1-1-2.1-1.4-3.2c-1.6-4.4-2.6-9.1-3-13.9C0.6,49.2,1,44.3,2,39.5c1.1-4.8,2.9-9.3,5.3-13.7l1.9-3.1c0.3-0.5,0.6-1,1-1.5
		l1.2-1.5l1.2-1.5l0.6-0.7l0.6-0.7l2.6-2.7c3.6-3.3,7.6-6.2,11.9-8.5c4.4-2.1,9-3.8,13.7-4.7c1.2-0.2,2.4-0.3,3.5-0.5
		c0.6-0.1,1.2-0.2,1.8-0.2L49,0.4c1.2,0,2.4-0.1,3.5-0.1c1.2,0.1,2.3,0.2,3.5,0.2c4.6,0.6,9.1,1.5,13.3,3.4c2.1,0.7,4,1.9,6,2.9
		L75.6,7l0.2,0.1l0.1,0c0,0,0.3,0.2,0.2,0.1l0.6,0.4L78,8.5l1.3,0.9c0.4,0.3,0.8,0.5,1.3,0.9c0.8,0.7,1.7,1.4,2.5,2.1
		c0.4,0.3,0.8,0.7,1.2,1l1.1,1.1c0.7,0.7,1.4,1.5,2.1,2.2c0.6,0.8,1.3,1.6,1.9,2.4c2.5,3.1,4.3,6.5,5.9,9.8c3,6.7,4.1,13.4,4.3,19.3
		c0,1.5,0,2.9-0.1,4.2c-0.2,1.4-0.3,2.7-0.4,3.9c-0.1,1.3-0.5,2.4-0.7,3.6c-0.1,0.6-0.2,1.1-0.3,1.7c-0.2,0.5-0.3,1-0.5,1.5
		c-0.3,1-0.6,1.9-0.9,2.8c-0.3,0.9-0.7,1.7-1,2.4c-0.3,0.7-0.6,1.4-0.8,2.1c-0.3,0.6-0.6,1.2-0.8,1.7C93,74,92.5,75.1,92.5,75.1
		L92.5,75.1z M92,74.8c0,0,0.5-1.1,1.5-3c0.2-0.5,0.5-1,0.8-1.7c0.2-0.6,0.5-1.3,0.8-2.1c0.3-0.7,0.6-1.5,0.9-2.4
		c0.2-0.9,0.5-1.8,0.7-2.8c0.1-0.5,0.2-1,0.4-1.5c0.1-0.5,0.2-1.1,0.2-1.6c0.1-1.1,0.4-2.3,0.5-3.5c0-1.2,0.1-2.5,0.1-3.8
		c0-1.3-0.2-2.7-0.2-4.1c-0.6-5.6-2.2-11.8-5.5-17.9c-0.4-0.7-0.9-1.5-1.3-2.2c-0.5-0.7-0.9-1.5-1.4-2.2c-1.1-1.4-2.1-2.9-3.3-4.2
		c-0.6-0.7-1.2-1.4-1.8-2.1c-0.7-0.6-1.4-1.3-2.1-1.9l-1-1c-0.3-0.3-0.7-0.6-1.1-0.9c-0.7-0.6-1.5-1.1-2.2-1.7
		c-0.3-0.3-0.8-0.6-1.2-0.8l-1.3-0.8L74,11.8l-0.7-0.4c-0.1-0.1,0.1,0,0,0l-0.1,0l-0.2-0.1l-0.3-0.2c-1.8-0.9-3.5-1.9-5.4-2.5
		c-3.7-1.5-7.8-2.4-11.9-2.9c-1-0.1-2.1-0.2-3.1-0.3c-1.1-0.1-2.1,0-3.2,0l-1.6,0c-0.5,0-1.1,0.1-1.6,0.2c-1.1,0.1-2.1,0.2-3.2,0.4
		c-4.3,0.7-8.4,2.1-12.5,3.9c-4,1.9-7.7,4.5-11,7.4l-2.4,2.4l-0.6,0.6L15.7,21l-1,1.3l-1.1,1.3c-0.4,0.4-0.7,1-1,1.4l-1.9,2.9
		c-2.2,3.9-4,8.1-5.1,12.5c-1,4.4-1.5,8.9-1.3,13.4c0.3,4.5,1.1,8.9,2.6,13c0.4,1,0.8,2,1.2,3.1c0.2,0.5,0.4,1,0.6,1.5l0.8,1.4
		c0.5,0.9,1,1.9,1.6,2.8c0.6,0.9,1.2,1.8,1.8,2.7c2.5,3.4,5.4,6.7,8.6,9.1c1.5,1.4,3.4,2.4,5.1,3.6l0.3,0.2l0.2,0.1l0.1,0.1
		c0,0,0,0,0,0l0.7,0.4l1.3,0.7c0.9,0.4,1.7,1,2.7,1.4c7.2,3.2,14.8,4.5,21.8,4.2c7-0.3,13.3-2.2,18.4-4.7c1.3-0.7,2.5-1.3,3.7-1.9
		c1.1-0.7,2.2-1.4,3.2-2.1c1-0.7,1.9-1.5,2.8-2.2c0.4-0.4,0.9-0.7,1.3-1.1c0.4-0.4,0.8-0.8,1.1-1.1c0.7-0.7,1.4-1.4,2-2.1
		c0.6-0.7,1.1-1.4,1.6-2c0.5-0.6,1-1.2,1.4-1.7c0.4-0.5,0.7-1.1,1-1.5C91.4,75.8,92,74.8,92,74.8L92,74.8z"/>
</g>
</svg>
